<svg xmlns="http://www.w3.org/2000/svg" width="100" height="100" fill="none" viewBox="0 0 100 100">
  <circle cx="50" cy="50" r="48.5" stroke="#fff" stroke-width="3"/>
  <path stroke="#FFFDFD" stroke-width="8" d="M26.667 16.667v41.666H55"/>
  <path fill="#fff" d="M48.809 79.333V36.677H63.75c5.176 0 9.102.996 11.777 2.988 2.676 1.973 4.014 4.873 4.014 8.702 0 2.09-.537 3.935-1.611 5.537-1.075 1.582-2.569 2.744-4.483 3.486 2.188.547 3.906 1.65 5.156 3.31 1.27 1.66 1.905 3.692 1.905 6.094 0 4.102-1.309 7.207-3.926 9.317-2.617 2.109-6.348 3.183-11.191 3.222H48.809zm8.789-18.574v11.514h7.529c2.07 0 3.682-.489 4.834-1.465 1.172-.996 1.758-2.363 1.758-4.102 0-3.906-2.022-5.888-6.065-5.947h-8.056zm0-6.21h6.504c4.433-.079 6.65-1.846 6.65-5.304 0-1.933-.566-3.32-1.7-4.16-1.113-.86-2.88-1.289-5.302-1.289h-6.152v10.752z"/>
</svg>
