<svg xmlns="http://www.w3.org/2000/svg" width="152" height="50" fill="none" viewBox="0 0 152 60">
  <path fill="#000" d="M70.2 37.647h6.22V40h-9.15V25.781h2.93v11.866zm13.915 1.279c-.696.846-1.66 1.27-2.89 1.27-1.133 0-2-.326-2.598-.977-.593-.651-.895-1.605-.908-2.862v-6.923h2.822v6.826c0 1.1.501 1.65 1.504 1.65.957 0 1.614-.332 1.973-.996v-7.48h2.832V40h-2.657l-.078-1.074zm10.801-6.846a7.663 7.663 0 00-1.016-.078c-1.067 0-1.767.361-2.1 1.084V40h-2.822V29.434h2.666l.079 1.26c.566-.97 1.35-1.456 2.353-1.456.313 0 .606.043.88.127l-.04 2.715zM99.262 40H96.43V29.434h2.832V40zm-2.998-13.3c0-.424.14-.772.42-1.046.286-.273.673-.41 1.162-.41.481 0 .866.137 1.152.41.286.274.43.622.43 1.045 0 .43-.147.781-.44 1.055-.286.273-.667.41-1.142.41-.476 0-.86-.137-1.153-.41-.286-.274-.43-.625-.43-1.055zm11.054 10.38c0-.345-.172-.615-.517-.81-.339-.202-.886-.381-1.641-.538-2.513-.527-3.769-1.595-3.769-3.203 0-.937.387-1.719 1.162-2.344.781-.631 1.8-.947 3.056-.947 1.342 0 2.412.316 3.213.948.808.631 1.211 1.451 1.211 2.46h-2.822c0-.403-.13-.735-.391-.996-.26-.266-.667-.4-1.22-.4-.476 0-.843.107-1.104.322-.26.215-.391.488-.391.82 0 .313.147.567.44.762.299.19.801.355 1.504.498.703.137 1.295.293 1.777.47 1.491.546 2.236 1.493 2.236 2.84 0 .964-.413 1.746-1.24 2.345-.827.592-1.894.888-3.203.888-.885 0-1.673-.156-2.363-.468-.684-.32-1.221-.752-1.611-1.3a3.037 3.037 0 01-.586-1.786h2.675c.026.5.212.885.557 1.152.345.267.807.4 1.387.4.54 0 .947-.1 1.22-.302.28-.209.42-.479.42-.81zm4.756 2.92V25.781h4.981c1.725 0 3.034.332 3.925.996.892.658 1.338 1.625 1.338 2.9 0 .697-.179 1.313-.537 1.846-.358.528-.856.915-1.494 1.162.729.183 1.302.55 1.719 1.104.423.553.635 1.23.635 2.031 0 1.367-.437 2.403-1.309 3.106-.872.703-2.116 1.061-3.73 1.074h-5.528zm2.93-6.191v3.838h2.51c.69 0 1.227-.163 1.611-.489.391-.332.586-.788.586-1.367 0-1.302-.674-1.963-2.022-1.982h-2.685zm0-2.07h2.168c1.478-.027 2.217-.616 2.217-1.768 0-.645-.189-1.107-.567-1.387-.371-.287-.96-.43-1.767-.43h-2.051v3.584zm13.603 4.267l1.954-6.572h3.027L129.34 41.64l-.235.556c-.631 1.38-1.673 2.07-3.125 2.07-.41 0-.826-.061-1.25-.185v-2.139l.43.01c.534 0 .931-.081 1.192-.244.266-.163.475-.433.625-.81l.332-.87-3.702-10.595h3.038l1.962 6.572zm9.473-9.17v2.598h1.807v2.07h-1.807v5.273c0 .391.075.67.225.84.149.17.436.254.859.254.313 0 .589-.023.83-.068v2.138a5.807 5.807 0 01-1.709.254c-1.979 0-2.988-.999-3.027-2.998v-5.693h-1.543v-2.07h1.543v-2.598h2.822zm8.242 13.36c-1.549 0-2.812-.476-3.789-1.426-.97-.951-1.455-2.217-1.455-3.8v-.273c0-1.06.205-2.008.615-2.842.411-.84.99-1.484 1.739-1.933.755-.456 1.614-.684 2.578-.684 1.445 0 2.581.456 3.408 1.367.833.912 1.25 2.204 1.25 3.877v1.153h-6.729c.092.69.365 1.243.821 1.66.462.417 1.045.625 1.748.625 1.087 0 1.937-.394 2.549-1.182l1.386 1.553c-.423.599-.996 1.068-1.718 1.406-.723.332-1.524.498-2.403.498zM146 31.522c-.56 0-1.016.19-1.367.567-.345.377-.567.918-.664 1.62h3.926v-.224c-.013-.625-.183-1.106-.508-1.445-.326-.345-.788-.518-1.387-.518z"/>
  <circle cx="30" cy="30" r="30" fill="#00BC8F"/>
  <path stroke="#F7F5F5" stroke-width="5" d="M16 10v25h17"/>
  <path fill="#F7F5F5" d="M29.54 49V20.562h9.96c3.45 0 6.068.665 7.852 1.993 1.783 1.315 2.675 3.248 2.675 5.8 0 1.394-.358 2.624-1.074 3.692-.716 1.055-1.712 1.83-2.988 2.324 1.458.365 2.604 1.1 3.437 2.207.847 1.107 1.27 2.461 1.27 4.063 0 2.734-.872 4.804-2.617 6.21-1.745 1.407-4.232 2.123-7.461 2.149H29.539zm5.858-12.383v7.676h5.02c1.38 0 2.454-.326 3.223-.977.78-.664 1.172-1.575 1.172-2.734 0-2.604-1.348-3.926-4.044-3.965H35.4zm0-4.14h4.336c2.956-.052 4.434-1.23 4.434-3.536 0-1.289-.378-2.213-1.133-2.773-.742-.573-1.92-.86-3.535-.86h-4.102v7.169z"/>
</svg>
